<?xml version="1.0" encoding="UTF-8"?>
<svg id="Layer_1" data-name="Layer 1" xmlns="http://www.w3.org/2000/svg" xmlns:xlink="http://www.w3.org/1999/xlink" viewBox="0 0 150 150">
  <defs>
    <style>
      .cls-1 {
        fill: url(#radial-gradient-3);
      }

      .cls-2 {
        fill: url(#radial-gradient-2);
      }

      .cls-3 {
        fill: url(#radial-gradient);
      }
    </style>
    <radialGradient id="radial-gradient" cx="-163.4" cy="-49.94" fx="-163.4" fy="-49.94" r="8.97" gradientTransform="translate(3947.39 -2555.67) rotate(10.96) scale(13.37 -65.86) skewX(60.32)" gradientUnits="userSpaceOnUse">
      <stop offset=".34" stop-color="#35b9a5"/>
      <stop offset=".67" stop-color="#44c25b"/>
    </radialGradient>
    <radialGradient id="radial-gradient-2" cx="75" cy="58.28" fx="75" fy="58.28" r="57.45" gradientTransform="matrix(1,0,0,1,0,0)" xlink:href="#radial-gradient"/>
    <radialGradient id="radial-gradient-3" cx="75" cy="126.67" fx="75" fy="126.67" r="45.31" gradientTransform="matrix(1,0,0,1,0,0)" xlink:href="#radial-gradient"/>
  </defs>
  <path class="cls-3" d="M133.38,41.63c-31.35,1.1-56.34,15.41-58.26,33.37h-.23c-1.92-17.95-26.91-32.27-58.26-33.37v-.13c31.35-1.1,56.34-15.41,58.26-33.37h.23c1.92,17.95,26.92,32.26,58.26,33.37v.13Z"/>
  <g>
    <path class="cls-2" d="M13.58,75.1v33.34h6.08v-17.46c.8.99,1.67,1.96,2.63,2.91,11.13,11.02,30.84,17.6,52.71,17.6s41.58-6.58,52.71-17.6c.95-.94,1.83-1.92,2.63-2.91v17.47h6.08v-33.34s0-.06,0-.1h0v-33.43c0-10.07-6.62-19.4-18.63-26.28-11.48-6.57-26.68-10.19-42.79-10.19s-31.31,3.62-42.79,10.19c-12.01,6.88-18.63,16.21-18.63,26.28v33.43h0s0,.06,0,.1ZM35.23,20.56c10.57-6.06,24.7-9.39,39.77-9.39s29.2,3.33,39.77,9.39c10.04,5.75,15.57,13.21,15.57,21s-5.53,15.25-15.57,21c-10.57,6.06-24.7,9.39-39.77,9.39s-29.2-3.33-39.77-9.39c-10.04-5.75-15.57-13.21-15.57-21s5.53-15.25,15.57-21ZM32.21,67.85c11.48,6.57,26.68,10.19,42.79,10.19s31.31-3.62,42.79-10.19c5.25-3,9.46-6.48,12.55-10.27v17.52c-.03,5.02-2.41,10.02-6.91,14.46-9.87,9.77-28.43,15.84-48.43,15.84s-38.56-6.07-48.43-15.84c-4.49-4.45-6.88-9.45-6.91-14.46v-17.52c3.09,3.8,7.3,7.27,12.55,10.27Z"/>
    <path class="cls-1" d="M114.77,129.44c-10.57,6.06-24.7,9.39-39.77,9.39s-29.2-3.33-39.77-9.39c-10.04-5.75-15.57-13.21-15.57-21h-6.08c0,10.07,6.62,19.4,18.63,26.28,11.48,6.57,26.68,10.19,42.79,10.19s31.31-3.62,42.79-10.19c12.01-6.88,18.63-16.21,18.63-26.28h-6.08c0,7.79-5.53,15.25-15.57,21Z"/>
  </g>
</svg>